<svg xmlns="http://www.w3.org/2000/svg" width="199.263" height="50.081" viewBox="0 0 199.263 50.081">
  <g id="Logo" transform="translate(0)">
    <g id="Group_351" data-name="Group 351">
      <g id="Group_346" data-name="Group 346" transform="translate(53.489 41.95)">
        <path id="Path_2008" data-name="Path 2008" d="M186.217,469.36l-1.455-4.552h1.182l.862,2.984.793-2.984h1.174l.767,2.984.879-2.984h1.2l-1.477,4.552h-1.169l-.792-2.927-.78,2.927Z" transform="translate(-184.762 -463.077)" fill="#62a931"/>
        <path id="Path_2009" data-name="Path 2009" d="M207.84,469.36l-1.455-4.552h1.183l.862,2.984.793-2.984H210.4l.767,2.984.879-2.984h1.2l-1.477,4.552h-1.169l-.792-2.927-.779,2.927Z" transform="translate(-196.501 -463.077)" fill="#62a931"/>
        <path id="Path_2010" data-name="Path 2010" d="M229.463,469.36l-1.455-4.552h1.183l.862,2.984.793-2.984h1.174l.767,2.984.879-2.984h1.2l-1.477,4.552h-1.169l-.792-2.927-.78,2.927Z" transform="translate(-208.24 -463.077)" fill="#62a931"/>
        <path id="Path_2011" data-name="Path 2011" d="M250.939,473.336v-1.2h1.217v1.2Z" transform="translate(-220.689 -467.052)" fill="#62a931"/>
        <path id="Path_2012" data-name="Path 2012" d="M265.1,467.79l1.213.2a1.969,1.969,0,0,1-.738,1,2.184,2.184,0,0,1-1.263.345,2.065,2.065,0,0,1-1.775-.776,2.584,2.584,0,0,1-.455-1.568,2.5,2.5,0,0,1,.6-1.773,1.98,1.98,0,0,1,1.512-.64,2.054,2.054,0,0,1,1.62.671,2.947,2.947,0,0,1,.567,2.055h-3.048a1.209,1.209,0,0,0,.294.834.925.925,0,0,0,.7.3.75.75,0,0,0,.481-.154A.949.949,0,0,0,265.1,467.79Zm.069-1.217a1.152,1.152,0,0,0-.273-.8.884.884,0,0,0-1.291.015,1.107,1.107,0,0,0-.255.78Z" transform="translate(-226.74 -462.955)" fill="#62a931"/>
        <path id="Path_2013" data-name="Path 2013" d="M283.873,466.033l-1.2.214a.862.862,0,0,0-.275-.536.837.837,0,0,0-.557-.18.912.912,0,0,0-.725.31,1.581,1.581,0,0,0-.271,1.04,1.828,1.828,0,0,0,.275,1.144.908.908,0,0,0,.739.334.823.823,0,0,0,.567-.2,1.162,1.162,0,0,0,.311-.671l1.2.2a2.091,2.091,0,0,1-.714,1.23,2.225,2.225,0,0,1-1.416.416,2.119,2.119,0,0,1-1.609-.629,2.848,2.848,0,0,1,0-3.5,2.15,2.15,0,0,1,1.628-.628,2.244,2.244,0,0,1,1.337.357A1.985,1.985,0,0,1,283.873,466.033Z" transform="translate(-236.246 -462.955)" fill="#62a931"/>
        <path id="Path_2014" data-name="Path 2014" d="M296.887,466.9a2.435,2.435,0,0,1,.3-1.162,2.043,2.043,0,0,1,.847-.858,2.542,2.542,0,0,1,1.223-.3,2.407,2.407,0,0,1,1.7,4.078,2.287,2.287,0,0,1-1.695.679,2.689,2.689,0,0,1-1.206-.283,1.95,1.95,0,0,1-.873-.829A2.733,2.733,0,0,1,296.887,466.9Zm1.247.064a1.5,1.5,0,0,0,.325,1.037,1.069,1.069,0,0,0,1.6,0,1.518,1.518,0,0,0,.323-1.045,1.492,1.492,0,0,0-.323-1.029,1.069,1.069,0,0,0-1.6,0A1.5,1.5,0,0,0,298.134,466.963Z" transform="translate(-245.634 -462.955)" fill="#62a931"/>
        <path id="Path_2015" data-name="Path 2015" d="M314.947,467.94l1.222-.184a.88.88,0,0,0,.316.533,1.076,1.076,0,0,0,.667.182,1.211,1.211,0,0,0,.71-.171.383.383,0,0,0,.16-.321.317.317,0,0,0-.087-.228.977.977,0,0,0-.407-.158,6.669,6.669,0,0,1-1.867-.587,1.171,1.171,0,0,1-.545-1.024,1.256,1.256,0,0,1,.472-.995,2.219,2.219,0,0,1,1.464-.4,2.579,2.579,0,0,1,1.4.3,1.555,1.555,0,0,1,.632.9l-1.147.21a.7.7,0,0,0-.279-.407,1.029,1.029,0,0,0-.587-.141,1.327,1.327,0,0,0-.688.133.282.282,0,0,0-.139.244.265.265,0,0,0,.121.219,4.583,4.583,0,0,0,1.137.339,3.421,3.421,0,0,1,1.358.535,1.11,1.11,0,0,1,.381.9,1.37,1.37,0,0,1-.528,1.076,2.358,2.358,0,0,1-1.563.45,2.585,2.585,0,0,1-1.488-.377A1.739,1.739,0,0,1,314.947,467.94Z" transform="translate(-255.439 -462.955)" fill="#62a931"/>
        <path id="Path_2016" data-name="Path 2016" d="M332.593,466.9a2.44,2.44,0,0,1,.3-1.162,2.045,2.045,0,0,1,.847-.858,2.542,2.542,0,0,1,1.223-.3,2.408,2.408,0,0,1,1.7,4.078,2.288,2.288,0,0,1-1.7.679,2.689,2.689,0,0,1-1.206-.283,1.95,1.95,0,0,1-.873-.829A2.738,2.738,0,0,1,332.593,466.9Zm1.247.064a1.5,1.5,0,0,0,.325,1.037,1.069,1.069,0,0,0,1.6,0,1.516,1.516,0,0,0,.323-1.045,1.49,1.49,0,0,0-.323-1.029,1.069,1.069,0,0,0-1.6,0A1.5,1.5,0,0,0,333.84,466.963Z" transform="translate(-265.018 -462.955)" fill="#62a931"/>
        <path id="Path_2017" data-name="Path 2017" d="M354.586,469.36v-.682a1.766,1.766,0,0,1-.66.575,1.861,1.861,0,0,1-.864.21,1.7,1.7,0,0,1-.831-.2,1.2,1.2,0,0,1-.533-.566,2.5,2.5,0,0,1-.165-1.007v-2.88h1.217V466.9a5.769,5.769,0,0,0,.067,1.177.643.643,0,0,0,.245.343.761.761,0,0,0,.451.127.963.963,0,0,0,.558-.17.862.862,0,0,0,.338-.42,4.821,4.821,0,0,0,.091-1.228v-1.921h1.217v4.552Z" transform="translate(-275.301 -463.077)" fill="#62a931"/>
        <path id="Path_2018" data-name="Path 2018" d="M371.076,469.238h-1.217v-4.552h1.13v.648a1.954,1.954,0,0,1,.522-.6.971.971,0,0,1,.527-.145,1.559,1.559,0,0,1,.8.227l-.377,1.05a1.079,1.079,0,0,0-.572-.2.681.681,0,0,0-.433.139.948.948,0,0,0-.279.5,7.059,7.059,0,0,0-.1,1.526Z" transform="translate(-285.25 -462.955)" fill="#62a931"/>
        <path id="Path_2019" data-name="Path 2019" d="M387.746,466.033l-1.2.214a.859.859,0,0,0-.275-.536.837.837,0,0,0-.557-.18.912.912,0,0,0-.725.31,1.582,1.582,0,0,0-.271,1.04,1.828,1.828,0,0,0,.275,1.144.908.908,0,0,0,.739.334.823.823,0,0,0,.567-.2,1.162,1.162,0,0,0,.311-.671l1.2.2a2.091,2.091,0,0,1-.715,1.23,2.225,2.225,0,0,1-1.416.416,2.119,2.119,0,0,1-1.609-.629,2.848,2.848,0,0,1,0-3.5,2.15,2.15,0,0,1,1.629-.628,2.243,2.243,0,0,1,1.336.357A1.985,1.985,0,0,1,387.746,466.033Z" transform="translate(-292.638 -462.955)" fill="#62a931"/>
        <path id="Path_2020" data-name="Path 2020" d="M401.376,462.134V461.02h1.217v1.114Zm0,5.169v-4.552h1.217V467.3Z" transform="translate(-302.36 -461.02)" fill="#62a931"/>
        <path id="Path_2021" data-name="Path 2021" d="M417.471,469.238h-1.217v-2.323a3.547,3.547,0,0,0-.078-.954.668.668,0,0,0-.253-.336.732.732,0,0,0-.422-.12.981.981,0,0,0-.567.172.862.862,0,0,0-.345.454,3.885,3.885,0,0,0-.093,1.045v2.062h-1.217v-4.552h1.13v.669a1.9,1.9,0,0,1,2.252-.628,1.241,1.241,0,0,1,.5.367,1.328,1.328,0,0,1,.239.506,3.747,3.747,0,0,1,.067.81Z" transform="translate(-308.822 -462.955)" fill="#62a931"/>
        <path id="Path_2022" data-name="Path 2022" d="M431.243,469.539l1.39.167a.471.471,0,0,0,.16.33.925.925,0,0,0,.546.128,1.427,1.427,0,0,0,.715-.142.584.584,0,0,0,.242-.3,1.817,1.817,0,0,0,.056-.553V468.5a1.651,1.651,0,0,1-1.377.737,1.7,1.7,0,0,1-1.468-.775,2.622,2.622,0,0,1-.424-1.526,2.494,2.494,0,0,1,.557-1.749,1.8,1.8,0,0,1,1.384-.6,1.689,1.689,0,0,1,1.407.741v-.639h1.139v4.085a4.026,4.026,0,0,1-.135,1.2,1.492,1.492,0,0,1-.376.626,1.683,1.683,0,0,1-.648.356,3.451,3.451,0,0,1-1.024.128,2.678,2.678,0,0,1-1.659-.4,1.241,1.241,0,0,1-.489-1.005C431.239,469.644,431.241,469.6,431.243,469.539Zm1.087-2.67a1.632,1.632,0,0,0,.283,1.061.881.881,0,0,0,.7.336.972.972,0,0,0,.753-.345,1.494,1.494,0,0,0,.308-1.022,1.583,1.583,0,0,0-.294-1.05.942.942,0,0,0-.746-.343.9.9,0,0,0-.721.336A1.57,1.57,0,0,0,432.33,466.868Z" transform="translate(-318.488 -462.955)" fill="#62a931"/>
        <path id="Path_2023" data-name="Path 2023" d="M450.063,473.336v-1.2h1.217v1.2Z" transform="translate(-328.792 -467.052)" fill="#62a931"/>
        <path id="Path_2024" data-name="Path 2024" d="M461.368,466.9a2.44,2.44,0,0,1,.3-1.162,2.043,2.043,0,0,1,.847-.858,2.542,2.542,0,0,1,1.223-.3,2.407,2.407,0,0,1,1.7,4.078,2.287,2.287,0,0,1-1.695.679,2.689,2.689,0,0,1-1.206-.283,1.951,1.951,0,0,1-.873-.829A2.738,2.738,0,0,1,461.368,466.9Zm1.247.064A1.5,1.5,0,0,0,462.94,468a1.069,1.069,0,0,0,1.6,0,1.516,1.516,0,0,0,.323-1.045,1.489,1.489,0,0,0-.323-1.029,1.069,1.069,0,0,0-1.6,0A1.5,1.5,0,0,0,462.615,466.963Z" transform="translate(-334.93 -462.955)" fill="#62a931"/>
        <path id="Path_2025" data-name="Path 2025" d="M481.47,469.238h-1.217v-4.552h1.13v.648a1.948,1.948,0,0,1,.522-.6.968.968,0,0,1,.526-.145,1.558,1.558,0,0,1,.8.227l-.376,1.05a1.081,1.081,0,0,0-.572-.2.682.682,0,0,0-.433.139.951.951,0,0,0-.279.5,7.069,7.069,0,0,0-.1,1.526Z" transform="translate(-345.182 -462.955)" fill="#62a931"/>
        <path id="Path_2026" data-name="Path 2026" d="M494.011,469.539l1.39.167a.468.468,0,0,0,.16.33.925.925,0,0,0,.546.128,1.425,1.425,0,0,0,.714-.142.582.582,0,0,0,.243-.3,1.818,1.818,0,0,0,.056-.553V468.5a1.651,1.651,0,0,1-1.377.737,1.7,1.7,0,0,1-1.468-.775,2.619,2.619,0,0,1-.424-1.526,2.492,2.492,0,0,1,.557-1.749,1.8,1.8,0,0,1,1.384-.6,1.689,1.689,0,0,1,1.407.741v-.639h1.139v4.085a4.025,4.025,0,0,1-.135,1.2,1.5,1.5,0,0,1-.376.626,1.684,1.684,0,0,1-.648.356,3.446,3.446,0,0,1-1.023.128,2.677,2.677,0,0,1-1.659-.4,1.239,1.239,0,0,1-.489-1.005C494.007,469.644,494.008,469.6,494.011,469.539Zm1.087-2.67a1.631,1.631,0,0,0,.283,1.061.88.88,0,0,0,.7.336.972.972,0,0,0,.753-.345,1.494,1.494,0,0,0,.307-1.022,1.583,1.583,0,0,0-.294-1.05.942.942,0,0,0-.746-.343.9.9,0,0,0-.721.336A1.57,1.57,0,0,0,495.1,466.868Z" transform="translate(-352.564 -462.955)" fill="#62a931"/>
      </g>
      <g id="Group_347" data-name="Group 347">
        <path id="Path_2027" data-name="Path 2027" d="M104.962,381.261l-4.99-4.815L85.321,391.624l-4.644.082L97.7,374.065l-4.99-4.818-24.97,25.871,25.081,24.21,4.817-4.99L81.183,398.451l4.71-.082,14.062,13.572,5.7-5.91L92.922,393.738Z" transform="translate(-67.745 -369.247)" fill="#62a931"/>
        <path id="Path_2028" data-name="Path 2028" d="M143.4,401.148l-9.634,9.982,9.982,9.631,9.631-9.981Zm.223,12.517L140.863,411l2.662-2.756,2.758,2.661Z" transform="translate(-103.587 -386.566)" fill="#62a931"/>
      </g>
      <g id="Group_349" data-name="Group 349" transform="translate(53.489 38.852)">
        <g id="Group_348" data-name="Group 348">
          <rect id="Rectangle_107" data-name="Rectangle 107" width="145.774" height="0.522" fill="#585857"/>
        </g>
      </g>
      <g id="Group_350" data-name="Group 350" transform="translate(54.639 23.719)">
        <path id="Path_2029" data-name="Path 2029" d="M193.533,432.546a3.05,3.05,0,0,1-.021.395.987.987,0,0,1-.061.257.326.326,0,0,1-.1.143.22.22,0,0,1-.134.045h-5.3a.673.673,0,0,1-.453-.159.657.657,0,0,1-.183-.518v-9.2a.656.656,0,0,1,.183-.518.673.673,0,0,1,.453-.159h5.269a.218.218,0,0,1,.131.041.318.318,0,0,1,.1.143,1.086,1.086,0,0,1,.062.261,3.352,3.352,0,0,1,.02.4,3.178,3.178,0,0,1-.02.387,1.026,1.026,0,0,1-.062.257.352.352,0,0,1-.1.143.207.207,0,0,1-.131.045h-3.768v2.577H192.6a.228.228,0,0,1,.135.045.341.341,0,0,1,.1.139.962.962,0,0,1,.062.252,3.22,3.22,0,0,1,.02.388,3.173,3.173,0,0,1-.02.392.955.955,0,0,1-.062.248.308.308,0,0,1-.1.135.24.24,0,0,1-.135.041h-3.189v2.977h3.8a.219.219,0,0,1,.134.044.332.332,0,0,1,.1.143,1,1,0,0,1,.061.257A3.058,3.058,0,0,1,193.533,432.546Z" transform="translate(-187.277 -422.057)" fill="#62a931"/>
        <path id="Path_2030" data-name="Path 2030" d="M211.268,431.584q0,.2-.012.347a1.739,1.739,0,0,1-.037.245.682.682,0,0,1-.065.175.9.9,0,0,1-.131.167,1.644,1.644,0,0,1-.347.24,4.12,4.12,0,0,1-.628.282,5.581,5.581,0,0,1-1.88.314,5.436,5.436,0,0,1-1.958-.334,3.865,3.865,0,0,1-1.484-1,4.445,4.445,0,0,1-.938-1.659,7.444,7.444,0,0,1-.326-2.317,7.329,7.329,0,0,1,.359-2.39,4.979,4.979,0,0,1,1-1.754,4.193,4.193,0,0,1,1.545-1.076,5.225,5.225,0,0,1,1.987-.367,4.79,4.79,0,0,1,.848.074,5.183,5.183,0,0,1,.754.191,3.806,3.806,0,0,1,.624.274,1.866,1.866,0,0,1,.387.265.925.925,0,0,1,.151.184.674.674,0,0,1,.065.188,2.158,2.158,0,0,1,.037.269c.007.1.012.232.012.384s-.005.3-.016.416a1.065,1.065,0,0,1-.057.277.389.389,0,0,1-.1.155.2.2,0,0,1-.13.049.563.563,0,0,1-.31-.143,4.914,4.914,0,0,0-.486-.317,3.908,3.908,0,0,0-.709-.319,3.017,3.017,0,0,0-.983-.142,2.323,2.323,0,0,0-1.962.991,3.459,3.459,0,0,0-.526,1.154,6.7,6.7,0,0,0,.013,3.136,3.119,3.119,0,0,0,.545,1.122,2.215,2.215,0,0,0,.858.656,2.816,2.816,0,0,0,1.129.216,3.194,3.194,0,0,0,.987-.135,4.078,4.078,0,0,0,.714-.3q.3-.164.49-.294a.61.61,0,0,1,.3-.13.234.234,0,0,1,.13.033.241.241,0,0,1,.082.131,1.329,1.329,0,0,1,.049.273C211.263,431.232,211.268,431.388,211.268,431.584Z" transform="translate(-196.064 -421.854)" fill="#62a931"/>
        <path id="Path_2031" data-name="Path 2031" d="M232.546,427.764a7.819,7.819,0,0,1-.326,2.349,4.74,4.74,0,0,1-.971,1.758,4.178,4.178,0,0,1-1.594,1.1,5.916,5.916,0,0,1-2.2.379,6.481,6.481,0,0,1-2.15-.323,3.716,3.716,0,0,1-1.529-.982,4.215,4.215,0,0,1-.918-1.68,8.484,8.484,0,0,1-.305-2.414,7.582,7.582,0,0,1,.326-2.3,4.707,4.707,0,0,1,.971-1.742,4.24,4.24,0,0,1,1.595-1.1,5.858,5.858,0,0,1,2.206-.384,6.457,6.457,0,0,1,2.117.318,3.729,3.729,0,0,1,1.534.979,4.275,4.275,0,0,1,.93,1.668A8.022,8.022,0,0,1,232.546,427.764Zm-2.251.114a8.072,8.072,0,0,0-.13-1.513,3.254,3.254,0,0,0-.444-1.167,2.13,2.13,0,0,0-.836-.75,2.869,2.869,0,0,0-1.305-.265,2.675,2.675,0,0,0-1.321.3,2.432,2.432,0,0,0-.857.8,3.271,3.271,0,0,0-.46,1.162,7.03,7.03,0,0,0-.135,1.407,8.419,8.419,0,0,0,.13,1.554,3.338,3.338,0,0,0,.441,1.178,2.033,2.033,0,0,0,.832.747,2.977,2.977,0,0,0,1.313.256,2.7,2.7,0,0,0,1.321-.293,2.366,2.366,0,0,0,.857-.8,3.392,3.392,0,0,0,.461-1.179A7.331,7.331,0,0,0,230.3,427.878Z" transform="translate(-206.429 -421.834)" fill="#62a931"/>
        <path id="Path_2032" data-name="Path 2032" d="M262.119,430a3.26,3.26,0,0,1-.31,1.46,3.015,3.015,0,0,1-.84,1.048,3.659,3.659,0,0,1-1.24.633,5.265,5.265,0,0,1-1.517.212,5.4,5.4,0,0,1-1.015-.09,5.8,5.8,0,0,1-.828-.217,3.56,3.56,0,0,1-.6-.265,1.749,1.749,0,0,1-.346-.245.611.611,0,0,1-.15-.306,2.738,2.738,0,0,1-.045-.575c0-.169.005-.31.016-.424a1.292,1.292,0,0,1,.053-.277.311.311,0,0,1,.1-.15.233.233,0,0,1,.143-.045.686.686,0,0,1,.322.134,5.566,5.566,0,0,0,.534.3,4.929,4.929,0,0,0,.779.3,3.734,3.734,0,0,0,1.048.134,2.4,2.4,0,0,0,.7-.094,1.566,1.566,0,0,0,.527-.265,1.134,1.134,0,0,0,.33-.424,1.346,1.346,0,0,0,.114-.563.981.981,0,0,0-.2-.615,1.922,1.922,0,0,0-.509-.457,5.218,5.218,0,0,0-.714-.375q-.4-.176-.824-.372a7.656,7.656,0,0,1-.824-.444,3.361,3.361,0,0,1-.714-.6,2.806,2.806,0,0,1-.509-.82,2.952,2.952,0,0,1-.2-1.134,3.006,3.006,0,0,1,.281-1.333,2.744,2.744,0,0,1,.759-.955,3.236,3.236,0,0,1,1.126-.566,4.909,4.909,0,0,1,1.374-.188,5.048,5.048,0,0,1,.75.057,5.156,5.156,0,0,1,.7.155,3.968,3.968,0,0,1,.579.22,1.372,1.372,0,0,1,.334.2.6.6,0,0,1,.111.139.69.69,0,0,1,.049.151,1.617,1.617,0,0,1,.028.236c.005.1.008.214.008.355,0,.158,0,.291-.013.4a1.445,1.445,0,0,1-.04.269.329.329,0,0,1-.081.155.2.2,0,0,1-.143.049.679.679,0,0,1-.286-.114c-.13-.076-.291-.159-.481-.249a4.8,4.8,0,0,0-.661-.245,2.943,2.943,0,0,0-.824-.11,1.937,1.937,0,0,0-.612.086,1.242,1.242,0,0,0-.436.235.926.926,0,0,0-.261.363,1.169,1.169,0,0,0-.086.449.986.986,0,0,0,.191.607,1.825,1.825,0,0,0,.515.457,5.367,5.367,0,0,0,.73.375q.408.176.832.372a8.23,8.23,0,0,1,.832.444,3.329,3.329,0,0,1,.726.6,2.77,2.77,0,0,1,.514.815A2.858,2.858,0,0,1,262.119,430Z" transform="translate(-224.167 -421.834)" fill="#62a931"/>
        <path id="Path_2033" data-name="Path 2033" d="M280.458,432.41a5.572,5.572,0,0,1-.245,1.7,3.588,3.588,0,0,1-.742,1.321,3.29,3.29,0,0,1-1.248.857,4.685,4.685,0,0,1-1.754.3,4.8,4.8,0,0,1-1.688-.269,3.033,3.033,0,0,1-1.191-.783,3.213,3.213,0,0,1-.7-1.264,5.886,5.886,0,0,1-.229-1.713,5.5,5.5,0,0,1,.249-1.7,3.567,3.567,0,0,1,.746-1.321,3.311,3.311,0,0,1,1.244-.853,4.655,4.655,0,0,1,1.749-.3,4.9,4.9,0,0,1,1.7.265,2.976,2.976,0,0,1,1.187.779,3.244,3.244,0,0,1,.7,1.264A5.917,5.917,0,0,1,280.458,432.41Zm-2.113.082a5.427,5.427,0,0,0-.085-.991,2.37,2.37,0,0,0-.29-.787,1.445,1.445,0,0,0-.542-.522,1.738,1.738,0,0,0-.853-.188,1.793,1.793,0,0,0-.8.168,1.432,1.432,0,0,0-.563.489,2.327,2.327,0,0,0-.33.774,4.355,4.355,0,0,0-.11,1.032,5.09,5.09,0,0,0,.09.991,2.457,2.457,0,0,0,.289.788,1.373,1.373,0,0,0,.543.517,1.772,1.772,0,0,0,.848.184,1.813,1.813,0,0,0,.807-.168,1.445,1.445,0,0,0,.563-.485,2.228,2.228,0,0,0,.326-.771A4.551,4.551,0,0,0,278.345,432.492Z" transform="translate(-233.631 -425.07)" fill="#62a931"/>
        <path id="Path_2034" data-name="Path 2034" d="M300.122,436.287a.246.246,0,0,1-.041.142.3.3,0,0,1-.144.1,1.059,1.059,0,0,1-.268.061,3.451,3.451,0,0,1-.421.021,3.62,3.62,0,0,1-.437-.021,1.013,1.013,0,0,1-.265-.061.3.3,0,0,1-.139-.1.247.247,0,0,1-.041-.142v-.84a4.626,4.626,0,0,1-1.227.979,2.761,2.761,0,0,1-1.293.326,2.9,2.9,0,0,1-1.261-.245,2.178,2.178,0,0,1-.823-.669,2.692,2.692,0,0,1-.449-.983,6.127,6.127,0,0,1-.134-1.391v-4.454a.228.228,0,0,1,.045-.142.321.321,0,0,1,.163-.1,1.431,1.431,0,0,1,.318-.061,5.975,5.975,0,0,1,.991,0,1.42,1.42,0,0,1,.314.061.354.354,0,0,1,.167.1.218.218,0,0,1,.049.142v4.111a3.93,3.93,0,0,0,.074.873,1.527,1.527,0,0,0,.225.518,1.027,1.027,0,0,0,.383.334,1.18,1.18,0,0,0,.543.118,1.342,1.342,0,0,0,.788-.285,4.736,4.736,0,0,0,.844-.832v-4.837a.233.233,0,0,1,.044-.142.331.331,0,0,1,.163-.1,1.434,1.434,0,0,1,.314-.061,6.019,6.019,0,0,1,1,0,1.355,1.355,0,0,1,.31.061.355.355,0,0,1,.163.1.22.22,0,0,1,.049.142Z" transform="translate(-244.772 -425.235)" fill="#62a931"/>
        <path id="Path_2035" data-name="Path 2035" d="M317.554,429.523c0,.2-.005.356-.016.481a1.51,1.51,0,0,1-.049.294.289.289,0,0,1-.086.147.213.213,0,0,1-.135.041.445.445,0,0,1-.147-.029c-.054-.019-.116-.039-.184-.061s-.143-.042-.224-.061a1.152,1.152,0,0,0-.269-.029.914.914,0,0,0-.342.069,1.474,1.474,0,0,0-.355.217,2.676,2.676,0,0,0-.383.391,6.3,6.3,0,0,0-.428.6v4.535a.22.22,0,0,1-.049.142.355.355,0,0,1-.168.1,1.411,1.411,0,0,1-.314.061,5.889,5.889,0,0,1-1,0,1.416,1.416,0,0,1-.314-.061.356.356,0,0,1-.168-.1.22.22,0,0,1-.049-.142v-7.276a.246.246,0,0,1,.041-.142.3.3,0,0,1,.147-.1,1.136,1.136,0,0,1,.273-.061,3.446,3.446,0,0,1,.42-.021,3.636,3.636,0,0,1,.432.021.953.953,0,0,1,.265.061.3.3,0,0,1,.135.1.246.246,0,0,1,.041.142v.905a5.829,5.829,0,0,1,.538-.672,3.019,3.019,0,0,1,.481-.421,1.492,1.492,0,0,1,.457-.216,1.727,1.727,0,0,1,.457-.062,2.039,2.039,0,0,1,.228.013,2.139,2.139,0,0,1,.253.04,1.909,1.909,0,0,1,.229.065.465.465,0,0,1,.143.078.264.264,0,0,1,.065.09.721.721,0,0,1,.036.135,1.8,1.8,0,0,1,.025.256C317.551,429.172,317.554,429.327,317.554,429.523Z" transform="translate(-255.466 -425.07)" fill="#62a931"/>
        <path id="Path_2036" data-name="Path 2036" d="M330.336,434.973c0,.142,0,.26-.013.355a1.812,1.812,0,0,1-.032.241.732.732,0,0,1-.049.16.589.589,0,0,1-.126.154,1.729,1.729,0,0,1-.335.229,3.225,3.225,0,0,1-.538.241,4.461,4.461,0,0,1-.656.171,4.044,4.044,0,0,1-.73.065,3.958,3.958,0,0,1-1.488-.261,2.788,2.788,0,0,1-1.089-.771,3.4,3.4,0,0,1-.665-1.243,5.775,5.775,0,0,1-.224-1.68,5.853,5.853,0,0,1,.272-1.889,3.623,3.623,0,0,1,.763-1.317,3.043,3.043,0,0,1,1.158-.775,4.123,4.123,0,0,1,1.468-.253,3.578,3.578,0,0,1,.64.057,3.65,3.65,0,0,1,.587.155,3.122,3.122,0,0,1,.49.22,1.476,1.476,0,0,1,.306.212.907.907,0,0,1,.127.15.536.536,0,0,1,.056.16,1.791,1.791,0,0,1,.033.241c.009.1.012.211.012.346a1.9,1.9,0,0,1-.081.665q-.082.191-.212.191a.5.5,0,0,1-.293-.114c-.1-.076-.226-.16-.367-.253a2.735,2.735,0,0,0-.506-.253,1.929,1.929,0,0,0-.7-.114,1.4,1.4,0,0,0-1.224.616,3.186,3.186,0,0,0-.424,1.807,4.549,4.549,0,0,0,.106,1.036,2.225,2.225,0,0,0,.314.751,1.331,1.331,0,0,0,.522.452,1.666,1.666,0,0,0,.73.151,1.916,1.916,0,0,0,.73-.126,3.035,3.035,0,0,0,.534-.282q.228-.155.383-.282a.456.456,0,0,1,.261-.126.182.182,0,0,1,.122.041.287.287,0,0,1,.077.15,1.868,1.868,0,0,1,.045.282C330.331,434.647,330.336,434.794,330.336,434.973Z" transform="translate(-261.715 -425.079)" fill="#62a931"/>
        <path id="Path_2037" data-name="Path 2037" d="M342.672,422.75a1.153,1.153,0,0,1-.253.857,2,2,0,0,1-1.872.008,1.115,1.115,0,0,1-.241-.824,1.183,1.183,0,0,1,.249-.861,1.972,1.972,0,0,1,1.872-.007A1.118,1.118,0,0,1,342.672,422.75Zm-.155,9.739a.22.22,0,0,1-.049.142.356.356,0,0,1-.168.1,1.412,1.412,0,0,1-.314.061,5.9,5.9,0,0,1-1,0,1.418,1.418,0,0,1-.314-.061.356.356,0,0,1-.168-.1.22.22,0,0,1-.049-.142V425.23a.22.22,0,0,1,.049-.142.381.381,0,0,1,.168-.107,1.414,1.414,0,0,1,.314-.069,5.114,5.114,0,0,1,1,0,1.407,1.407,0,0,1,.314.069.381.381,0,0,1,.168.107.22.22,0,0,1,.049.142Z" transform="translate(-270.355 -421.437)" fill="#62a931"/>
        <path id="Path_2038" data-name="Path 2038" d="M356.57,436.122a.22.22,0,0,1-.049.142.355.355,0,0,1-.163.1,1.362,1.362,0,0,1-.314.061,4.785,4.785,0,0,1-.493.021,4.913,4.913,0,0,1-.5-.021,1.364,1.364,0,0,1-.314-.061.353.353,0,0,1-.163-.1.22.22,0,0,1-.049-.142V431.97a3.5,3.5,0,0,0-.078-.832,1.64,1.64,0,0,0-.224-.518.991.991,0,0,0-.38-.334,1.168,1.168,0,0,0-.542-.119,1.358,1.358,0,0,0-.791.286,4.287,4.287,0,0,0-.832.832v4.837a.218.218,0,0,1-.049.142.354.354,0,0,1-.167.1,1.416,1.416,0,0,1-.314.061,5.889,5.889,0,0,1-1,0,1.416,1.416,0,0,1-.314-.061.354.354,0,0,1-.167-.1.218.218,0,0,1-.049-.142v-7.276a.247.247,0,0,1,.041-.142.3.3,0,0,1,.147-.1,1.141,1.141,0,0,1,.274-.061,3.441,3.441,0,0,1,.42-.021,3.641,3.641,0,0,1,.432.021.962.962,0,0,1,.265.061.3.3,0,0,1,.135.1.246.246,0,0,1,.041.142v.84a4.621,4.621,0,0,1,1.227-.979,2.779,2.779,0,0,1,1.3-.326,2.884,2.884,0,0,1,1.252.245,2.177,2.177,0,0,1,.823.665,2.681,2.681,0,0,1,.453.982,5.713,5.713,0,0,1,.139,1.354Z" transform="translate(-275.412 -425.07)" fill="#62a931"/>
        <path id="Path_2039" data-name="Path 2039" d="M374.83,429.391a1.4,1.4,0,0,1-.09.579c-.06.125-.134.187-.22.187h-.856a1.172,1.172,0,0,1,.257.445,1.742,1.742,0,0,1,.077.518,2.846,2.846,0,0,1-.212,1.13,2.256,2.256,0,0,1-.608.832,2.663,2.663,0,0,1-.953.513,4.127,4.127,0,0,1-1.244.176,2.581,2.581,0,0,1-.669-.085,1.7,1.7,0,0,1-.49-.2,1.174,1.174,0,0,0-.175.253.686.686,0,0,0-.078.326.459.459,0,0,0,.208.388,1.067,1.067,0,0,0,.583.167l1.77.065a4.294,4.294,0,0,1,1.106.176,2.361,2.361,0,0,1,.815.424,1.84,1.84,0,0,1,.506.656,2.091,2.091,0,0,1,.175.873,2.26,2.26,0,0,1-.236,1.016,2.314,2.314,0,0,1-.709.827,3.675,3.675,0,0,1-1.187.555,6.13,6.13,0,0,1-1.668.2,7.387,7.387,0,0,1-1.587-.147,3.487,3.487,0,0,1-1.077-.408,1.59,1.59,0,0,1-.8-1.419,1.9,1.9,0,0,1,.069-.514,1.924,1.924,0,0,1,.2-.469,2.354,2.354,0,0,1,.33-.428,3.633,3.633,0,0,1,.448-.392,1.372,1.372,0,0,1-.543-.51,1.354,1.354,0,0,1-.192-.705,1.776,1.776,0,0,1,.22-.877,2.807,2.807,0,0,1,.571-.713,2.164,2.164,0,0,1-.457-.685,2.531,2.531,0,0,1-.171-1,2.765,2.765,0,0,1,.224-1.138,2.4,2.4,0,0,1,.624-.848,2.77,2.77,0,0,1,.954-.531,3.9,3.9,0,0,1,1.223-.183,5.039,5.039,0,0,1,.656.041,4.383,4.383,0,0,1,.584.114h2.308c.093,0,.168.06.224.179A1.5,1.5,0,0,1,374.83,429.391Zm-2.153,7.529a.636.636,0,0,0-.294-.563,1.539,1.539,0,0,0-.807-.212l-1.46-.041a2.094,2.094,0,0,0-.338.3,1.874,1.874,0,0,0-.2.273.822.822,0,0,0-.1.253,1.281,1.281,0,0,0-.024.253.669.669,0,0,0,.412.62,2.583,2.583,0,0,0,1.161.212,2.8,2.8,0,0,0,.783-.094,1.515,1.515,0,0,0,.514-.249.885.885,0,0,0,.277-.346A1.024,1.024,0,0,0,372.677,436.92Zm-.481-5.808a1.234,1.234,0,0,0-.326-.914,1.247,1.247,0,0,0-.922-.326,1.3,1.3,0,0,0-.53.1,1.069,1.069,0,0,0-.379.277,1.151,1.151,0,0,0-.224.408,1.607,1.607,0,0,0-.074.485,1.176,1.176,0,0,0,.326.877,1.233,1.233,0,0,0,.905.322,1.355,1.355,0,0,0,.538-.1,1.04,1.04,0,0,0,.379-.269,1.158,1.158,0,0,0,.229-.395A1.43,1.43,0,0,0,372.2,431.112Z" transform="translate(-285.1 -425.109)" fill="#62a931"/>
        <path id="Path_2040" data-name="Path 2040" d="M400.886,432.431a3.366,3.366,0,0,1-.021.412,1.238,1.238,0,0,1-.061.278.364.364,0,0,1-.1.159.222.222,0,0,1-.143.049h-4.837a.673.673,0,0,1-.453-.159.655.655,0,0,1-.183-.518v-9.584a.231.231,0,0,1,.053-.147.375.375,0,0,1,.176-.106,1.729,1.729,0,0,1,.33-.065,5.609,5.609,0,0,1,1.04,0,1.707,1.707,0,0,1,.326.065.372.372,0,0,1,.176.106.229.229,0,0,1,.053.147v8.491h3.32a.23.23,0,0,1,.143.045.321.321,0,0,1,.1.147,1.066,1.066,0,0,1,.061.268A3.365,3.365,0,0,1,400.886,432.431Z" transform="translate(-300.096 -421.999)" fill="#62a931"/>
        <path id="Path_2041" data-name="Path 2041" d="M412.3,422.75a1.151,1.151,0,0,1-.253.857,2,2,0,0,1-1.871.008,1.115,1.115,0,0,1-.241-.824,1.185,1.185,0,0,1,.248-.861,1.972,1.972,0,0,1,1.872-.007A1.118,1.118,0,0,1,412.3,422.75Zm-.155,9.739a.22.22,0,0,1-.049.142.356.356,0,0,1-.168.1,1.418,1.418,0,0,1-.314.061,5.9,5.9,0,0,1-1,0,1.413,1.413,0,0,1-.314-.061.354.354,0,0,1-.168-.1.22.22,0,0,1-.049-.142V425.23a.22.22,0,0,1,.049-.142.378.378,0,0,1,.168-.107,1.408,1.408,0,0,1,.314-.069,5.114,5.114,0,0,1,1,0,1.414,1.414,0,0,1,.314.069.381.381,0,0,1,.168.107.22.22,0,0,1,.049.142Z" transform="translate(-308.155 -421.437)" fill="#62a931"/>
        <path id="Path_2042" data-name="Path 2042" d="M430.821,436.122a.22.22,0,0,1-.049.142.355.355,0,0,1-.163.1,1.351,1.351,0,0,1-.31.061,4.782,4.782,0,0,1-.5.021,4.874,4.874,0,0,1-.506-.021,1.436,1.436,0,0,1-.314-.061.332.332,0,0,1-.163-.1.233.233,0,0,1-.044-.142v-4.315a2.968,2.968,0,0,0-.069-.669,1.568,1.568,0,0,0-.212-.518,1,1,0,0,0-.359-.334,1.053,1.053,0,0,0-.517-.119,1.227,1.227,0,0,0-.742.286,4.962,4.962,0,0,0-.815.832v4.837a.22.22,0,0,1-.049.142.354.354,0,0,1-.167.1,1.43,1.43,0,0,1-.314.061,4.667,4.667,0,0,1-.489.021,4.782,4.782,0,0,1-.5-.021,1.416,1.416,0,0,1-.314-.061.355.355,0,0,1-.168-.1.22.22,0,0,1-.049-.142v-4.315a2.968,2.968,0,0,0-.069-.669,1.635,1.635,0,0,0-.208-.518.96.96,0,0,0-.359-.334,1.062,1.062,0,0,0-.514-.119,1.235,1.235,0,0,0-.75.286,4.753,4.753,0,0,0-.808.832v4.837a.22.22,0,0,1-.049.142.353.353,0,0,1-.168.1,1.41,1.41,0,0,1-.314.061,5.889,5.889,0,0,1-1,0,1.416,1.416,0,0,1-.314-.061.358.358,0,0,1-.168-.1.22.22,0,0,1-.049-.142v-7.276a.246.246,0,0,1,.041-.142.3.3,0,0,1,.147-.1,1.136,1.136,0,0,1,.273-.061,3.449,3.449,0,0,1,.42-.021,3.633,3.633,0,0,1,.432.021.953.953,0,0,1,.265.061.3.3,0,0,1,.135.1.246.246,0,0,1,.041.142v.84a4.794,4.794,0,0,1,1.2-.979,2.583,2.583,0,0,1,1.252-.326,3.171,3.171,0,0,1,.807.094,2.3,2.3,0,0,1,.64.268,2.009,2.009,0,0,1,.486.421,2.447,2.447,0,0,1,.342.547,6.246,6.246,0,0,1,.64-.6,3.913,3.913,0,0,1,.62-.412,2.845,2.845,0,0,1,.613-.235,2.508,2.508,0,0,1,.623-.078,2.754,2.754,0,0,1,1.224.245,2.134,2.134,0,0,1,.8.665,2.644,2.644,0,0,1,.437.982,5.269,5.269,0,0,1,.131,1.191Z" transform="translate(-313.212 -425.07)" fill="#62a931"/>
        <path id="Path_2043" data-name="Path 2043" d="M451,422.75a1.153,1.153,0,0,1-.253.857,2,2,0,0,1-1.872.008,1.115,1.115,0,0,1-.241-.824,1.183,1.183,0,0,1,.249-.861,1.972,1.972,0,0,1,1.872-.007A1.118,1.118,0,0,1,451,422.75Zm-.155,9.739a.22.22,0,0,1-.049.142.356.356,0,0,1-.168.1,1.412,1.412,0,0,1-.314.061,5.9,5.9,0,0,1-1,0,1.417,1.417,0,0,1-.314-.061.356.356,0,0,1-.168-.1.22.22,0,0,1-.049-.142V425.23a.22.22,0,0,1,.049-.142.381.381,0,0,1,.168-.107,1.413,1.413,0,0,1,.314-.069,5.114,5.114,0,0,1,1,0,1.407,1.407,0,0,1,.314.069.381.381,0,0,1,.168.107.22.22,0,0,1,.049.142Z" transform="translate(-329.167 -421.437)" fill="#62a931"/>
        <path id="Path_2044" data-name="Path 2044" d="M461.26,433.292a2.579,2.579,0,0,1-.044.55.605.605,0,0,1-.119.27.639.639,0,0,1-.216.138,2.01,2.01,0,0,1-.334.107,3.583,3.583,0,0,1-.417.069,4.126,4.126,0,0,1-.452.025,3.265,3.265,0,0,1-1.06-.155,1.769,1.769,0,0,1-.742-.477,2,2,0,0,1-.432-.812,4.284,4.284,0,0,1-.139-1.158v-3.727h-.873q-.155,0-.237-.192a1.8,1.8,0,0,1-.081-.64,3.281,3.281,0,0,1,.02-.4.967.967,0,0,1,.061-.257.309.309,0,0,1,.1-.134.254.254,0,0,1,.144-.041h.864v-1.623a.248.248,0,0,1,.045-.147.332.332,0,0,1,.163-.111,1.326,1.326,0,0,1,.317-.065q.2-.02.494-.02c.2,0,.369.007.5.02a1.266,1.266,0,0,1,.314.065.366.366,0,0,1,.163.111.239.239,0,0,1,.049.147v1.623h1.583a.247.247,0,0,1,.142.041.3.3,0,0,1,.1.134.95.95,0,0,1,.061.257,3.181,3.181,0,0,1,.021.4,1.8,1.8,0,0,1-.081.64q-.082.191-.237.192h-1.59v3.417a1.7,1.7,0,0,0,.187.894.729.729,0,0,0,.669.3,1.364,1.364,0,0,0,.294-.029,1.64,1.64,0,0,0,.232-.065c.068-.024.125-.046.172-.065a.337.337,0,0,1,.126-.028.172.172,0,0,1,.093.028.191.191,0,0,1,.07.114,1.8,1.8,0,0,1,.044.233A2.718,2.718,0,0,1,461.26,433.292Z" transform="translate(-333.226 -422.958)" fill="#62a931"/>
        <path id="Path_2045" data-name="Path 2045" d="M476.391,432.272a.789.789,0,0,1-.168.555.6.6,0,0,1-.46.18h-4.429a3.045,3.045,0,0,0,.11.844,1.617,1.617,0,0,0,.352.645,1.52,1.52,0,0,0,.62.4,2.642,2.642,0,0,0,.909.139,5.078,5.078,0,0,0,.946-.078,6.091,6.091,0,0,0,.706-.17c.2-.063.362-.12.493-.172a.922.922,0,0,1,.318-.077.241.241,0,0,1,.122.028.212.212,0,0,1,.082.1.72.72,0,0,1,.045.208c.007.091.012.2.012.339,0,.12,0,.222-.008.306a1.8,1.8,0,0,1-.025.216.516.516,0,0,1-.049.151.524.524,0,0,1-.086.118.979.979,0,0,1-.289.155,4.588,4.588,0,0,1-.6.192,8.381,8.381,0,0,1-.84.163,6.989,6.989,0,0,1-1.012.069,5.346,5.346,0,0,1-1.7-.245,3.03,3.03,0,0,1-1.22-.742,3.1,3.1,0,0,1-.73-1.256,5.91,5.91,0,0,1-.24-1.778,5.665,5.665,0,0,1,.253-1.75,3.667,3.667,0,0,1,.734-1.321,3.166,3.166,0,0,1,1.171-.827,4.02,4.02,0,0,1,1.554-.286,4.07,4.07,0,0,1,1.562.269,2.835,2.835,0,0,1,1.064.746,3.023,3.023,0,0,1,.612,1.13,4.93,4.93,0,0,1,.2,1.419Zm-1.99-.587a2.11,2.11,0,0,0-.347-1.358,1.341,1.341,0,0,0-1.145-.493,1.486,1.486,0,0,0-.682.147,1.392,1.392,0,0,0-.48.395,1.793,1.793,0,0,0-.294.587,2.928,2.928,0,0,0-.118.722Z" transform="translate(-340.356 -425.07)" fill="#62a931"/>
        <path id="Path_2046" data-name="Path 2046" d="M494.977,432.189a.267.267,0,0,1-.041.151.3.3,0,0,1-.139.1.94.94,0,0,1-.266.057q-.167.016-.411.016c-.174,0-.315-.006-.424-.016a.979.979,0,0,1-.265-.057.33.33,0,0,1-.147-.1.246.246,0,0,1-.045-.151v-.808a4.7,4.7,0,0,1-1.178.938,3.09,3.09,0,0,1-2.773.011,2.679,2.679,0,0,1-.938-.868,3.775,3.775,0,0,1-.526-1.276,7.011,7.011,0,0,1-.163-1.538,6.71,6.71,0,0,1,.208-1.746,3.931,3.931,0,0,1,.607-1.321,2.691,2.691,0,0,1,1-.84,3.054,3.054,0,0,1,1.37-.294,2.452,2.452,0,0,1,1.109.249,3.951,3.951,0,0,1,.987.73v-3.939a.254.254,0,0,1,.044-.147.337.337,0,0,1,.163-.11,1.368,1.368,0,0,1,.314-.07,5.121,5.121,0,0,1,1,0,1.3,1.3,0,0,1,.31.07.361.361,0,0,1,.163.11.239.239,0,0,1,.049.147Zm-2.039-4.861a4.559,4.559,0,0,0-.844-.848,1.419,1.419,0,0,0-.845-.293,1.181,1.181,0,0,0-.689.2,1.455,1.455,0,0,0-.466.534,2.915,2.915,0,0,0-.261.746,4.2,4.2,0,0,0-.085.844,5.3,5.3,0,0,0,.073.889,2.8,2.8,0,0,0,.24.771,1.467,1.467,0,0,0,.445.542,1.155,1.155,0,0,0,.7.2,1.421,1.421,0,0,0,.412-.061,1.592,1.592,0,0,0,.408-.2,2.762,2.762,0,0,0,.428-.363q.22-.224.481-.55Z" transform="translate(-350.353 -421.137)" fill="#62a931"/>
      </g>
    </g>
  </g>
</svg>
